#!OML:ASF H:\Terrain\Patient Classification 1\Walking\liu\liu.ASF
:FULLY-SPECIFIED
:DEGREES
307
root 10.016200 16.752899 6.185800 7.373940 7.449890 5.100030
lowerback -4.011935 -2.481250 -3.451560
upperback -0.377968 -3.036575 0.953615
thorax 2.314870 -1.583515 2.548050
lowerneck -9.428550 -2.341455 -6.404300
upperneck 10.884150 -2.926830 6.118150
head 5.447700 -1.163265 2.873380
rclavicle -0.000000 -0.000000
rhumerus -24.855900 3.028560 -41.373749
rradius 17.306999
rwrist -9.497600
rhand -14.139550 -13.593000
rfingers 3.562510
rthumb -0.827720 -28.579651
lclavicle -0.000000 -0.000000
lhumerus -5.999050 -17.780451 45.161900
lradius 18.613150
lwrist 8.828750
lhand -5.650300 -10.400450
lfingers 3.562510
lthumb 7.365450 4.327850
rfemur -22.096951 9.076800 -0.424767
rtibia 12.617950
rfoot -16.422600 -9.937100
rtoes -10.688350
lfemur 6.853300 1.463845 -14.352350
ltibia 0.000000
lfoot -7.332150 0.436402
ltoes 0.599475
308
root 10.002400 16.731899 6.334230 7.508800 7.673760 4.847830
lowerback -4.060065 -2.448060 -3.329170
upperback -0.395272 -2.999735 0.944795
thorax 2.304465 -1.561705 2.473250
lowerneck -9.353250 -2.380295 -6.266900
upperneck 10.803850 -3.019155 6.088950
head 5.411850 -1.199040 2.820510
rclavicle -0.000000 0.000000
rhumerus -24.726650 2.600820 -41.264000
rradius 16.857849
rwrist -9.032000
rhand -13.286850 -13.722150
rfingers 3.562510
rthumb -0.004164 -28.712000
lclavicle -0.000000 0.000000
lhumerus -6.196800 -18.418650 45.325699
lradius 18.934700
lwrist 8.893900
lhand -5.772600 -10.614950
lfingers 3.562510
lthumb 7.247600 4.121885
rfemur -22.165701 8.953400 -0.240329
rtibia 12.512600
rfoot -16.597851 -9.995250
rtoes -10.443500
lfemur 7.067450 1.482850 -14.093250
ltibia 0.000000
lfoot -7.362800 0.325739
ltoes 0.262961
309
root 9.992270 16.712099 6.491320 7.609820 7.929990 5.051830
lowerback -4.110295 -2.464520 -3.462515
upperback -0.360308 -3.004435 0.924110
thorax 2.381760 -1.569590 2.519390
lowerneck -9.176000 -2.378035 -6.406700
upperneck 10.534900 -3.035500 6.339100
head 5.296000 -1.194915 2.927285
rclavicle 0.000000 -0.000000
rhumerus -24.674999 2.679020 -41.321602
rradius 16.660450
rwrist -8.984700
rhand -13.280200 -13.028800
rfingers 3.562510
rthumb 0.002254 -28.018650
lclavicle 0.000000 -0.000000
lhumerus -6.292100 -18.540600 45.526100
lradius 19.166901
lwrist 8.484200
lhand -5.451000 -10.850350
lfingers 3.562510
lthumb 7.557450 3.863695
rfemur -22.051600 8.436400 -0.026842
rtibia 12.368850
rfoot -16.389400 -9.918400
rtoes -10.689550
lfemur 7.321000 1.466205 -14.074000
ltibia 0.000000
lfoot -7.346650 0.153366
ltoes 0.043855
310
root 9.985370 16.687700 6.655970 7.670240 8.008930 5.300190
lowerback -4.103115 -2.478280 -3.586900
upperback -0.377272 -3.011380 0.907615
thorax 2.372015 -1.574590 2.571560
lowerneck -9.537350 -2.489280 -6.349300
upperneck 10.883500 -3.147440 6.140250
head 5.501000 -1.253040 2.837070
rclavicle 0.000000 -0.000000
rhumerus -24.648951 2.579310 -41.188351
rradius 16.331350
rwrist -8.760350
rhand -13.201900 -12.430200
rfingers 3.562510
rthumb 0.077873 -27.420050
lclavicle 0.000000 -0.000000
lhumerus -6.480500 -18.663250 45.802250
lradius 19.354700
lwrist 8.145050
lhand -5.195200 -10.820350
lfingers 3.562510
lthumb 7.803850 3.874800
rfemur -21.866051 7.539900 0.453274
rtibia 12.230850
rfoot -15.795450 -9.436450
rtoes -10.646900
lfemur 7.601050 1.533860 -14.075450
ltibia -0.000000
lfoot -7.230450 -0.072711
ltoes 0.283219
